<svg xmlns="http://www.w3.org/2000/svg" viewBox="-40 -900 3878.167 1380" role="img" aria-label="مستفتي" xmlns:c2pa="http://c2pa.org/manifest"><metadata><c2pa:manifest>AAAWgmp1bWIAAAAeanVtZGMycGEAEQAQgAAAqgA4m3EDYzJwYQAAABZcanVtYgAAAEdqdW1kYzJtYQARABCAAACqADibcQN1cm46YzJwYTozZGIyODExYS03NmZiLTRmNTMtODEwMC03NDExYjQyYWQ3MmIAAAADl2p1bWIAAAApanVtZGMyYXMAEQAQgAAAqgA4m3EDYzJwYS5hc3NlcnRpb25zAAAAALxqdW1iAAAARGp1bWRjYm9yABEAEIAAAKoAOJtxE2MycGEuaW5ncmVkaWVudC52MwAAAAAYYzJzaFZ4Mxcf8lpRcnWapUSyZZsAAABwY2JvcqNpZGM6Zm9ybWF0bWltYWdlL3N2Zyt4bWxqaW5zdGFuY2VJRHgseG1wOmlpZDplNmY1MzMyMC00YmYyLTQ2NWMtOGVjNy1iOGFiYTRjNDdkYjhscmVsYXRpb25zaGlwaHBhcmVudE9mAAAB4mp1bWIAAABBanVtZGNib3IAEQAQgAAAqgA4m3ETYzJwYS5hY3Rpb25zLnYyAAAAABhjMnNoaAcTnTqIcPPFVe7/y9gbcgAAAZljYm9yomdhY3Rpb25zgqJmYWN0aW9ua2MycGEub3BlbmVkanBhcmFtZXRlcnOha2luZ3JlZGllbnRzgaJjdXJseC1zZWxmI2p1bWJmPWMycGEuYXNzZXJ0aW9ucy9jMnBhLmluZ3JlZGllbnQudjNkaGFzaFggil7BE2d+A0zgyGGM/S8tr5B66iUxw4bEohiotgmyx7akZmFjdGlvbngdY29tLmFudGhyb3BpYy5jbGF1ZGUucHJvdmlkZWRqcGFyYW1ldGVyc6F4H2NvbS5hbnRocm9waWMub3JpZ2luLWNvbmZpZGVuY2VndW5rbm93bmtkZXNjcmlwdGlvbnhmQ2xhdWRlIHByb3ZpZGVkIHRoaXMgZmlsZSBhdCB0aGUgcmVxdWVzdCBvZiBhIHVzZXIgYW5kIG1heSBoYXZlIGNyZWF0ZWQgb3IgbW9kaWZpZWQgdGhlIGZpbGUgY29udGVudHMubXNvZnR3YXJlQWdlbnShZG5hbWVmQ2xhdWRlcmFsbEFjdGlvbnNJbmNsdWRlZPUAAADIanVtYgAAAEBqdW1kY2JvcgARABCAAACqADibcRNjMnBhLmhhc2guZGF0YQAAAAAYYzJzaGXRRMkawByTczSfaJKCv7UAAACAY2JvcqVjYWxnZnNoYTI1NmNwYWRNAAAAAAAAAAAAAAAAAGRoYXNoWCDp9Ca65YVnFFY8d+r8jNSV3DZM4i9Jl7paB3tSFQFgWWRuYW1lbmp1bWJmIG1hbmlmZXN0amV4Y2x1c2lvbnOBomVzdGFydBitZmxlbmd0aBkeBAAAAj5qdW1iAAAAJ2p1bWRjMmNsABEAEIAAAKoAOJtxA2MycGEuY2xhaW0udjIAAAACD2Nib3KlY2FsZ2ZzaGEyNTZpc2lnbmF0dXJleE1zZWxmI2p1bWJmPS9jMnBhL3VybjpjMnBhOjNkYjI4MTFhLTc2ZmItNGY1My04MTAwLTc0MTFiNDJhZDcyYi9jMnBhLnNpZ25hdHVyZWppbnN0YW5jZUlEeCx4bXA6aWlkOmZhYjc3OTY0LWYwZDktNDRlOS1hOGJhLTc1OGViNjg2ODY5Y3JjcmVhdGVkX2Fzc2VydGlvbnODomN1cmx4LXNlbGYjanVtYmY9YzJwYS5hc3NlcnRpb25zL2MycGEuaW5ncmVkaWVudC52M2RoYXNoWCCKXsETZ34DTODIYYz9Ly2vkHrqJTHDhsSiGKi2CbLHtqJjdXJseCpzZWxmI2p1bWJmPWMycGEuYXNzZXJ0aW9ucy9jMnBhLmFjdGlvbnMudjJkaGFzaFggHOHTv2mee8X36re5qn6TcKicA99oaJj/peswKETf3hSiY3VybHgpc2VsZiNqdW1iZj1jMnBhLmFzc2VydGlvbnMvYzJwYS5oYXNoLmRhdGFkaGFzaFgglFhHZRvljTJryiJeJ/IGa6E/yt1bDqE4lK2StQuivAB0Y2xhaW1fZ2VuZXJhdG9yX2luZm+jZG5hbWVvQW50aHJvcGljIEZpbGVzZ3ZlcnNpb25lMS4wLjBrc3BlY1ZlcnNpb25lMi40LjAAABA4anVtYgAAAChqdW1kYzJjcwARABCAAACqADibcQNjMnBhLnNpZ25hdHVyZQAAABAIY2JvctKEWQISogEmGCFZAgowggIGMIIBjaADAgECAhRA5aAK7sI50L64g/oGQgU9Z1UTADAKBggqhkjOPQQDAzBJMRcwFQYDVQQKEw5BbnRocm9waWMsIFBCQzEuMCwGA1UEAxMlQW50aHJvcGljIENvbnRlbnQgQ3JlZGVudGlhbHMgUm9vdCBDQTAeFw0yNjA4MDcxODQzNTZaFw0yODA4MDYxOTQzNTZaMEQxFzAVBgNVBAoTDkFudGhyb3BpYywgUEJDMSkwJwYDVQQDEyBBbnRocm9waWMgQ2xhdWRlIENvbnRlbnQgU2lnbmluZzBZMBMGByqGSM49AgEGCCqGSM49AwEHA0IABJh6CmvLUBgFFNU0vUKlOVtE6djd17L5SuwX0LemFisBM3dkd/3cyjxFA3Qo5S46fX0/ihY0VZ7mfb9KF703t5OjWDBWMA4GA1UdDwEB/wQEAwIHgDAVBgNVHSUEDjAMBgorBgEEAYPoXgIBMAwGA1UdEwEB/wQCMAAwHwYDVR0jBBgwFoAUzlHiBIFOZFsj+OPEz5o+nMHXXMIwCgYIKoZIzj0EAwMDZwAwZAIwMXMdFJ4BetLLVY7ORuE9noqbbAZOZn/aArXyTwFAZfKrPzxF2vPoJNf1+UCdg1XGAjBwX1zd9WGqYkqmL5SFqw1QySjr1zJfpJM9+1rdDwSPLMOPOjKuiXjoU/pUUeG9RwmhY3BhZFkNngAAAAAAAAAAAAAAAAAAAAAAAAAAAAAAAAAAAAAAAAAAAAAAAAAAAAAAAAAAAAAAAAAAAAAAAAAAAAAAAAAAAAAAAAAAAAAAAAAAAAAAAAAAAAAAAAAAAAAAAAAAAAAAAAAAAAAAAAAAAAAAAAAAAAAAAAAAAAAAAAAAAAAAAAAAAAAAAAAAAAAAAAAAAAAAAAAAAAAAAAAAAAAAAAAAAAAAAAAAAAAAAAAAAAAAAAAAAAAAAAAAAAAAAAAAAAAAAAAAAAAAAAAAAAAAAAAAAAAAAAAAAAAAAAAAAAAAAAAAAAAAAAAAAAAAAAAAAAAAAAAAAAAAAAAAAAAAAAAAAAAAAAAAAAAAAAAAAAAAAAAAAAAAAAAAAAAAAAAAAAAAAAAAAAAAAAAAAAAAAAAAAAAAAAAAAAAAAAAAAAAAAAAAAAAAAAAAAAAAAAAAAAAAAAAAAAAAAAAAAAAAAAAAAAAAAAAAAAAAAAAAAAAAAAAAAAAAAAAAAAAAAAAAAAAAAAAAAAAAAAAAAAAAAAAAAAAAAAAAAAAAAAAAAAAAAAAAAAAAAAAAAAAAAAAAAAAAAAAAAAAAAAAAAAAAAAAAAAAAAAAAAAAAAAAAAAAAAAAAAAAAAAAAAAAAAAAAAAAAAAAAAAAAAAAAAAAAAAAAAAAAAAAAAAAAAAAAAAAAAAAAAAAAAAAAAAAAAAAAAAAAAAAAAAAAAAAAAAAAAAAAAAAAAAAAAAAAAAAAAAAAAAAAAAAAAAAAAAAAAAAAAAAAAAAAAAAAAAAAAAAAAAAAAAAAAAAAAAAAAAAAAAAAAAAAAAAAAAAAAAAAAAAAAAAAAAAAAAAAAAAAAAAAAAAAAAAAAAAAAAAAAAAAAAAAAAAAAAAAAAAAAAAAAAAAAAAAAAAAAAAAAAAAAAAAAAAAAAAAAAAAAAAAAAAAAAAAAAAAAAAAAAAAAAAAAAAAAAAAAAAAAAAAAAAAAAAAAAAAAAAAAAAAAAAAAAAAAAAAAAAAAAAAAAAAAAAAAAAAAAAAAAAAAAAAAAAAAAAAAAAAAAAAAAAAAAAAAAAAAAAAAAAAAAAAAAAAAAAAAAAAAAAAAAAAAAAAAAAAAAAAAAAAAAAAAAAAAAAAAAAAAAAAAAAAAAAAAAAAAAAAAAAAAAAAAAAAAAAAAAAAAAAAAAAAAAAAAAAAAAAAAAAAAAAAAAAAAAAAAAAAAAAAAAAAAAAAAAAAAAAAAAAAAAAAAAAAAAAAAAAAAAAAAAAAAAAAAAAAAAAAAAAAAAAAAAAAAAAAAAAAAAAAAAAAAAAAAAAAAAAAAAAAAAAAAAAAAAAAAAAAAAAAAAAAAAAAAAAAAAAAAAAAAAAAAAAAAAAAAAAAAAAAAAAAAAAAAAAAAAAAAAAAAAAAAAAAAAAAAAAAAAAAAAAAAAAAAAAAAAAAAAAAAAAAAAAAAAAAAAAAAAAAAAAAAAAAAAAAAAAAAAAAAAAAAAAAAAAAAAAAAAAAAAAAAAAAAAAAAAAAAAAAAAAAAAAAAAAAAAAAAAAAAAAAAAAAAAAAAAAAAAAAAAAAAAAAAAAAAAAAAAAAAAAAAAAAAAAAAAAAAAAAAAAAAAAAAAAAAAAAAAAAAAAAAAAAAAAAAAAAAAAAAAAAAAAAAAAAAAAAAAAAAAAAAAAAAAAAAAAAAAAAAAAAAAAAAAAAAAAAAAAAAAAAAAAAAAAAAAAAAAAAAAAAAAAAAAAAAAAAAAAAAAAAAAAAAAAAAAAAAAAAAAAAAAAAAAAAAAAAAAAAAAAAAAAAAAAAAAAAAAAAAAAAAAAAAAAAAAAAAAAAAAAAAAAAAAAAAAAAAAAAAAAAAAAAAAAAAAAAAAAAAAAAAAAAAAAAAAAAAAAAAAAAAAAAAAAAAAAAAAAAAAAAAAAAAAAAAAAAAAAAAAAAAAAAAAAAAAAAAAAAAAAAAAAAAAAAAAAAAAAAAAAAAAAAAAAAAAAAAAAAAAAAAAAAAAAAAAAAAAAAAAAAAAAAAAAAAAAAAAAAAAAAAAAAAAAAAAAAAAAAAAAAAAAAAAAAAAAAAAAAAAAAAAAAAAAAAAAAAAAAAAAAAAAAAAAAAAAAAAAAAAAAAAAAAAAAAAAAAAAAAAAAAAAAAAAAAAAAAAAAAAAAAAAAAAAAAAAAAAAAAAAAAAAAAAAAAAAAAAAAAAAAAAAAAAAAAAAAAAAAAAAAAAAAAAAAAAAAAAAAAAAAAAAAAAAAAAAAAAAAAAAAAAAAAAAAAAAAAAAAAAAAAAAAAAAAAAAAAAAAAAAAAAAAAAAAAAAAAAAAAAAAAAAAAAAAAAAAAAAAAAAAAAAAAAAAAAAAAAAAAAAAAAAAAAAAAAAAAAAAAAAAAAAAAAAAAAAAAAAAAAAAAAAAAAAAAAAAAAAAAAAAAAAAAAAAAAAAAAAAAAAAAAAAAAAAAAAAAAAAAAAAAAAAAAAAAAAAAAAAAAAAAAAAAAAAAAAAAAAAAAAAAAAAAAAAAAAAAAAAAAAAAAAAAAAAAAAAAAAAAAAAAAAAAAAAAAAAAAAAAAAAAAAAAAAAAAAAAAAAAAAAAAAAAAAAAAAAAAAAAAAAAAAAAAAAAAAAAAAAAAAAAAAAAAAAAAAAAAAAAAAAAAAAAAAAAAAAAAAAAAAAAAAAAAAAAAAAAAAAAAAAAAAAAAAAAAAAAAAAAAAAAAAAAAAAAAAAAAAAAAAAAAAAAAAAAAAAAAAAAAAAAAAAAAAAAAAAAAAAAAAAAAAAAAAAAAAAAAAAAAAAAAAAAAAAAAAAAAAAAAAAAAAAAAAAAAAAAAAAAAAAAAAAAAAAAAAAAAAAAAAAAAAAAAAAAAAAAAAAAAAAAAAAAAAAAAAAAAAAAAAAAAAAAAAAAAAAAAAAAAAAAAAAAAAAAAAAAAAAAAAAAAAAAAAAAAAAAAAAAAAAAAAAAAAAAAAAAAAAAAAAAAAAAAAAAAAAAAAAAAAAAAAAAAAAAAAAAAAAAAAAAAAAAAAAAAAAAAAAAAAAAAAAAAAAAAAAAAAAAAAAAAAAAAAAAAAAAAAAAAAAAAAAAAAAAAAAAAAAAAAAAAAAAAAAAAAAAAAAAAAAAAAAAAAAAAAAAAAAAAAAAAAAAAAAAAAAAAAAAAAAAAAAAAAAAAAAAAAAAAAAAAAAAAAAAAAAAAAAAAAAAAAAAAAAAAAAAAAAAAAAAAAAAAAAAAAAAAAAAAAAAAAAAAAAAAAAAAAAAAAAAAAAAAAAAAAAAAAAAAAAAAAAAAAAAAAAAAAAAAAAAAAAAAAAAAAAAAAAAAAAAAAAAAAAAAAAAAAAAAAAAAAAAAAAAAAAAAAAAAAAAAAAAAAAAAAAAAAAAAAAAAAAAAAAAAAAAAAAAAAAAAAAAAAAAAAAAAAAAAAAAAAAAAAAAAAAAAAAAAAAAAAAAAAAAAAAAAAAAAAAAAAAAAAAAAAAAAAAAAAAAAAAAAAAAAAAAAAAAAAAAAAAAAAAAAAAAAAAAAAAAAAAAAAAAAAAAAAAAAAAAAAAAAAAAAAAAAAAAAAAAAAAAAAAAAAAAAAAAAAAAAAAAAAAAAAAAAAAAAAAAAAAAAAAAAAAAAAAAAAAAAAAAAAAAAAAAAAAAAAAAAAAAAAAAAAAAAAAAAAAAAAAAAAAAAAAAAAAAAAAAAAAAAAAAAAAAAAAAAAAAAAAAAAAAAAAAAAAAAAAAAAAAAAAAAAAAAAAAAAAAAAAAAAAAAAAAAAAAAAAAAAAAAAAAAAAAAAAAAAAAAAAAAAAAAAAAAAAAAAAAAAAAAAAAAAAAAAAAAAAAAAAAAAAAAAAAAAAAAAAAAAAAAAAAAAAAAAAAAAAAAAAAAAAAAAAAAAAAAAAAAAAAAAAAAAAAAAAAAAAAAAAAAAAAAAAAAAAAAAAAAAAAAAAAAAAAAAAAAAAAAAAAAAAAAAAAAAAAAAAAAAAAAAAAAAAAAAAAAAAAAAAAAAAAAAAAAAAAAAAAAAAAAAAAAAAAAAAAAAAAAAAAAAAAAAAAAAAAAAAAAAAAAAAAAAAAAAAAAAAAAAAAAAAAAAAAAAAAAAAAAAAAAAAAAAAAAAAAAAAAAAAAAAAAAAAAAAAAAAAAAAAAAAAAAAAAAAAAAAAAAAAAAAAAAAAAAAAAAAAAAAAAAAAAAAAAAAAAAAAAAAAAAAAAAAAAAAAAAAAAAAAAAAAAAAAAAAAAAAAAAAAAAAAAAAAAAAAAAAAAAAAAAAAAAAAAAAAAAAAAAAAAAAAAAAAAAAAAAAAAAAAAAAAAAAAAAAAAAAAAAAAAAAAAAAAAAAAAAAAAAAAAAAAAAAAAAAAAAAAAAAAAAAAAAAAAAAAAAAAAAAAAAAAAAAAAAAAAAAAAAAAAAAAAAAAAAAAAAAAAAAAAAAAAAAAAAAAAAAAAAAAAAAAAAAAAAAAAAAAAAAAAAAAAAAAAAAAAAAAAAAAAAAAAAAAAAAAAAAAAAAAAAAAAAAAAAAAAAAAAAAAAAAAAAAAAAAAAAAAAAAAAAAAAAAAAAAAAAAAAAAAAAAAAAAAAAAAAAAAAAAAAAAAAAAAAAAAAAAAAAAAAAAAAAAAAAAAAAAAAAAAAAAAAAAAAAAAAAAAAAAAAAAAAAAAAAAAAAAAAAAAAAAAAAAAAAAAAAAAAAAAAAAAAAAAAAAAAAAAAAAAAAAAAAAAAAAAAPZYQJCPdwW+vd6Uf8T38yEWZSD5vDn56Se7OkeJlgFKMdNdrDTIedboG69WIce9tuxYd90keupt2f8QcQcZcHrwAtk=</c2pa:manifest></metadata><g fill="#04301F"><path d="M360 230Q284 230 221.5 215.0Q159 200 113.5 168.0Q68 136 43.5 85.5Q19 35 19 -36Q19 -77 30.5 -133.0Q42 -189 67 -241L205 -198Q193 -163 186.5 -133.0Q180 -103 180 -74Q180 -39 192.0 -11.5Q204 16 229.0 35.0Q254 54 292.0 63.5Q330 73 382 73Q454 73 500.0 64.5Q546 56 572.0 42.0Q598 28 608.0 12.0Q618 -4 618 -19Q618 -28 612.0 -35.5Q606 -43 586.0 -55.0Q566 -67 524 -87L589 -223Q648 -186 682.5 -161.0Q717 -136 734.0 -118.0Q751 -100 756.5 -83.5Q762 -67 762 -47Q762 -14 751.0 24.0Q740 62 714.0 98.5Q688 135 642.0 164.5Q596 194 527.0 212.0Q458 230 360 230ZM814 0Q803 0 777.0 -5.0Q751 -10 718.0 -20.0Q685 -30 651.0 -44.5Q617 -59 590 -78L589 -223Q634 -201 668.5 -187.5Q703 -174 728.5 -167.5Q754 -161 771.5 -159.0Q789 -157 800 -157H818V0ZM275 499 170 392 269 286 374 392ZM451 499 346 392 446 286 551 392Z M818 0V-157H957Q961 -174 964.0 -203.0Q967 -232 969.0 -261.5Q971 -291 970 -311L1158 -377Q1140 -304 1122.5 -240.5Q1105 -177 1081.5 -118.5Q1058 -60 1021 0ZM1228 0Q1159 0 1111.5 -13.5Q1064 -27 1032.0 -45.5Q1000 -64 977 -80L1062 -179Q1076 -172 1095.0 -167.0Q1114 -162 1137.0 -159.5Q1160 -157 1185 -157H1228V0ZM818 -157H828V0H818Q788 0 788 -78Q788 -157 818 -157ZM980 -435 875 -541 974 -648 1079 -541ZM1156 -435 1051 -541 1151 -648 1256 -541Z M1228 0V-157H1372Q1369 -156 1364.5 -154.0Q1360 -152 1354.5 -150.5Q1349 -149 1344 -148Q1322 -177 1314.0 -207.0Q1306 -237 1306 -268Q1306 -309 1321.0 -347.0Q1336 -385 1366.0 -416.0Q1396 -447 1440.5 -465.0Q1485 -483 1543 -483Q1602 -483 1646.5 -465.0Q1691 -447 1721.0 -416.0Q1751 -385 1766.5 -347.0Q1782 -309 1782 -268Q1782 -236 1773.5 -206.5Q1765 -177 1743 -148Q1734 -150 1733.0 -152.0Q1732 -154 1723 -157H1840V0H1815Q1744 0 1697.0 -1.5Q1650 -3 1616.5 -8.0Q1583 -13 1551 -25Q1536 -20 1522.0 -15.5Q1508 -11 1488.5 -7.5Q1469 -4 1437.5 -2.0Q1406 0 1355 0ZM1543 -149Q1567 -160 1583.0 -176.0Q1599 -192 1607.0 -212.0Q1615 -232 1615 -254Q1615 -274 1606.5 -290.0Q1598 -306 1582.0 -316.0Q1566 -326 1543 -326Q1521 -326 1505.0 -316.0Q1489 -306 1480.5 -289.5Q1472 -273 1472 -254Q1472 -232 1480.0 -212.5Q1488 -193 1504.0 -177.0Q1520 -161 1543 -149ZM1228 -157H1238V0H1228Q1198 0 1198 -78Q1198 -157 1228 -157ZM1546 -567 1440 -673 1541 -780 1646 -673Z M1840 0V-157H1979Q1983 -174 1986.0 -203.0Q1989 -232 1991.0 -261.5Q1993 -291 1992 -311L2180 -377Q2162 -304 2144.5 -240.5Q2127 -177 2103.5 -118.5Q2080 -60 2043 0ZM2250 0Q2181 0 2133.5 -13.5Q2086 -27 2054.0 -45.5Q2022 -64 1999 -80L2084 -179Q2098 -172 2117.0 -167.0Q2136 -162 2159.0 -159.5Q2182 -157 2207 -157H2250V0ZM1840 -157H1850V0H1840Q1810 0 1810 -78Q1810 -157 1840 -157ZM2002 -435 1897 -541 1996 -648 2101 -541ZM2178 -435 2073 -541 2173 -648 2278 -541Z M2917 0Q2848 0 2800.5 -13.5Q2753 -27 2721.0 -45.5Q2689 -64 2666 -80L2750 -179Q2796 -157 2873 -157H2999Q2989 -176 2979.0 -196.5Q2969 -217 2956.5 -242.0Q2944 -267 2926 -298L3112 -423Q3120 -363 3124.5 -295.5Q3129 -228 3121.5 -154.5Q3114 -81 3087 0ZM2250 0V-157H2346Q2349 -178 2351.0 -200.0Q2353 -222 2352.5 -247.0Q2352 -272 2349 -301L2539 -366Q2525 -296 2512.0 -247.0Q2499 -198 2483.0 -160.0Q2467 -122 2445.5 -85.0Q2424 -48 2392 0ZM2560 0Q2485 0 2433.0 -13.5Q2381 -27 2350.5 -44.5Q2320 -62 2308 -72L2367 -189Q2392 -174 2428.5 -165.5Q2465 -157 2509 -157H2631Q2634 -172 2636.0 -194.5Q2638 -217 2638.0 -244.5Q2638 -272 2635 -301L2826 -366Q2811 -296 2797.5 -247.0Q2784 -198 2768.5 -160.0Q2753 -122 2731.0 -85.0Q2709 -48 2678 0ZM3205 0Q3152 0 3110.5 -9.0Q3069 -18 3038.0 -32.5Q3007 -47 2984 -61L3045 -180Q3057 -174 3071.0 -170.0Q3085 -166 3100.0 -163.0Q3115 -160 3132.0 -158.5Q3149 -157 3167 -157H3210V0ZM2250 -157H2260V0H2250Q2220 0 2220 -78Q2220 -157 2250 -157Z M3210 -157H3290V0H3210ZM3210 -157H3220V0H3210Q3180 0 3180 -78Q3180 -157 3210 -157Z"/></g><path fill="#04301F" d="M3182.207,-292.58099999999996 a307.97999999999996,307.97999999999996 0 1,0 615.9599999999999,0 a307.97999999999996,307.97999999999996 0 1,0 -615.9599999999999,0 Z"/><path fill="#04301F" d="M3211.1,-162.4 L3188.4,52.4 L3384.9,-3.2 Z"/><path fill="#FFB800" d="M3313.1,-292.6 a44.7,44.7 0 1,0 89.3,0 a44.7,44.7 0 1,0 -89.3,0 Z M3445.5,-292.6 a44.7,44.7 0 1,0 89.3,0 a44.7,44.7 0 1,0 -89.3,0 Z M3578.0,-292.6 a44.7,44.7 0 1,0 89.3,0 a44.7,44.7 0 1,0 -89.3,0 Z"/></svg>